<svg xmlns="http://www.w3.org/2000/svg"><symbol viewBox="0 0 6 7" id="icon-arrow-back"><title>Rectangle 2</title><desc>Created with Sketch.</desc> <!-- Generator: Sketch 47 (45396) - http://www.bohemiancoding.com/sketch -->    <g id="arrow-back-Page-1" stroke="none" stroke-width="1" fill="none" fill-rule="evenodd"> <g id="arrow-back-Group-5" fill="#FFFFFF"> <path d="M1.00010628,1 L4.99999673,1 L4.99999673,1 C5.55228148,1 5.99999673,1.44771525 5.99999673,2 C5.99999673,2.19742376 5.94155943,2.3904303 5.83204903,2.55469719 L3.8321038,5.55463851 L3.8321038,5.55463851 C3.525753,6.01416831 2.90488411,6.13834442 2.44535431,5.83199362 C2.33549974,5.75875781 2.24123502,5.66449309 2.16799921,5.55463851 L0.168053979,2.55469719 L0.168053979,2.55469719 C-0.13829682,2.0951674 -0.014120709,1.4742985 0.445409086,1.1679477 C0.609675975,1.0584373 0.802682522,1 1.00010628,1 Z" id="arrow-back-Rectangle-2" transform="translate(2.999998, 3.500024) rotate(-270.000000) translate(-2.999998, -3.500024) "/> </g> </g> </symbol><symbol viewBox="0 0 12 11" id="icon-cross"><title>Group 8</title><desc>Created with Sketch.</desc> <!-- Generator: Sketch 47 (45396) - http://www.bohemiancoding.com/sketch -->    <g id="cross-Page-1" stroke="none" stroke-width="1" fill="none" fill-rule="evenodd"> <g id="cross-submit" transform="translate(-861.000000, -43.000000)" fill="#FFFFFF"> <g id="cross-Group-8" transform="translate(867.000000, 48.500000) rotate(-45.000000) translate(-867.000000, -48.500000) translate(860.000000, 42.000000)"> <g id="cross-Group-6"> <rect id="cross-Rectangle-4" x="6" y="0" width="2" height="13"/> <rect id="cross-Rectangle-4" transform="translate(7.000000, 6.500000) rotate(-90.000000) translate(-7.000000, -6.500000) " x="6" y="0" width="2" height="13"/> </g> </g> </g> </g> </symbol><symbol viewBox="0 0 15 13" id="icon-like"><title>like</title> <path id="like-Shape" class="st0" d="M6.8,12.7c-1.1-1-3.4-3.1-4.3-4C1.3,7.6,0,5.7,0,4.1C0,1.7,2.1,0,4,0c2.7,0,3.4,1.8,3.4,2.5
	C7.5,1.8,8.3,0,11,0c1.9,0,4,1.7,4,4.1c0,1.7-1.3,3.5-2.5,4.7c-0.9,0.9-3.3,3-4.4,4C7.7,13.1,7.2,13.1,6.8,12.7z"/> </symbol><symbol viewBox="0 0 18 18" id="icon-link-arrow"><title>link-arrow</title> <path d="M17.9,7l-7.6-6.7c-0.1-0.1-0.2-0.1-0.2,0C10,0.3,10,0.4,10,0.4l0,3.2C6.1,3.7,0,7,0,17.5
	c0,0.1,0.1,0.2,0.2,0.2c0,0,0,0,0,0c0.1,0,0.2-0.1,0.2-0.2c1.4-4.6,6.2-6.9,8.9-6.9c0.3,0,0.5,0,0.6,0l0,3.2c0,0.1,0.1,0.1,0.1,0.2
	c0.1,0,0.2,0,0.2,0l7.6-6.8C18,7.3,18,7.1,17.9,7z"/> </symbol><symbol viewBox="0 0 188 32" id="icon-logo"><title>Group 6</title><desc>Created with Sketch.</desc> <!-- Generator: Sketch 47 (45396) - http://www.bohemiancoding.com/sketch -->    <g id="logo-Page-1" stroke="none" stroke-width="1" fill="none" fill-rule="evenodd"> <g id="logo-index" transform="translate(-50.000000, -34.000000)"> <g id="logo-Group-6" transform="translate(50.000000, 34.000000)"> <path d="M55.146,22.252 C57.468,22.252 59.502,21.082 60.564,19.282 L58.422,18.04 C57.828,19.138 56.586,19.822 55.146,19.822 C52.68,19.822 51.06,18.112 51.06,15.7 C51.06,13.27 52.68,11.56 55.146,11.56 C56.586,11.56 57.81,12.244 58.422,13.36 L60.564,12.118 C59.484,10.318 57.45,9.148 55.146,9.148 C51.33,9.148 48.594,12.01 48.594,15.7 C48.594,19.372 51.33,22.252 55.146,22.252 Z M66.414,22.252 C63.768,22.252 61.662,20.182 61.662,17.5 C61.662,14.818 63.768,12.748 66.414,12.748 C69.06,12.748 71.184,14.818 71.184,17.5 C71.184,20.182 69.06,22.252 66.414,22.252 Z M66.414,19.984 C67.8,19.984 68.862,18.958 68.862,17.5 C68.862,16.042 67.8,15.016 66.414,15.016 C65.046,15.016 63.984,16.042 63.984,17.5 C63.984,18.958 65.046,19.984 66.414,19.984 Z M82.776,12.748 C81.552,12.748 80.652,13.234 80.094,14.044 C79.59,13.216 78.762,12.748 77.646,12.748 C76.494,12.748 75.648,13.198 75.144,13.954 L75.144,13 L72.822,13 L72.822,22 L75.144,22 L75.144,16.942 C75.144,15.592 75.846,14.908 76.836,14.908 C77.808,14.908 78.348,15.556 78.348,16.618 L78.348,22 L80.67,22 L80.67,16.942 C80.67,15.592 81.318,14.908 82.344,14.908 C83.316,14.908 83.856,15.556 83.856,16.618 L83.856,22 L86.178,22 L86.178,16.456 C86.178,14.206 84.828,12.748 82.776,12.748 Z M93.396,12.748 C95.808,12.748 97.788,14.818 97.788,17.5 C97.788,20.182 95.808,22.252 93.396,22.252 C92.082,22.252 91.128,21.766 90.48,20.938 L90.48,25.6 L88.158,25.6 L88.158,13 L90.48,13 L90.48,14.062 C91.128,13.234 92.082,12.748 93.396,12.748 Z M92.964,20.038 C94.404,20.038 95.466,19.012 95.466,17.5 C95.466,15.988 94.404,14.962 92.964,14.962 C91.542,14.962 90.48,15.988 90.48,17.5 C90.48,19.012 91.542,20.038 92.964,20.038 Z M101.388,18.454 C101.712,19.642 102.702,20.146 103.926,20.146 C104.826,20.146 105.546,19.768 105.942,19.246 L107.814,20.326 C106.968,21.55 105.618,22.252 103.89,22.252 C100.866,22.252 98.958,20.182 98.958,17.5 C98.958,14.818 100.884,12.748 103.71,12.748 C106.374,12.748 108.264,14.854 108.264,17.5 C108.264,17.842 108.228,18.148 108.174,18.454 L101.388,18.454 Z M101.352,16.654 L105.942,16.654 C105.654,15.358 104.682,14.836 103.71,14.836 C102.468,14.836 101.622,15.502 101.352,16.654 Z M115.032,15.232 L115.032,13 L112.998,13 L112.998,10.48 L110.676,11.182 L110.676,13 L109.11,13 L109.11,15.232 L110.676,15.232 L110.676,18.976 C110.676,21.406 111.774,22.36 115.032,22 L115.032,19.894 C113.7,19.966 112.998,19.948 112.998,18.976 L112.998,15.232 L115.032,15.232 Z M117.966,11.92 C118.758,11.92 119.406,11.272 119.406,10.498 C119.406,9.724 118.758,9.058 117.966,9.058 C117.192,9.058 116.544,9.724 116.544,10.498 C116.544,11.272 117.192,11.92 117.966,11.92 Z M116.814,22 L119.136,22 L119.136,13 L116.814,13 L116.814,22 Z M126.408,15.232 L126.408,13 L124.374,13 L124.374,10.48 L122.052,11.182 L122.052,13 L120.486,13 L120.486,15.232 L122.052,15.232 L122.052,18.976 C122.052,21.406 123.15,22.36 126.408,22 L126.408,19.894 C125.076,19.966 124.374,19.948 124.374,18.976 L124.374,15.232 L126.408,15.232 Z M132.474,22.252 C129.828,22.252 127.722,20.182 127.722,17.5 C127.722,14.818 129.828,12.748 132.474,12.748 C135.12,12.748 137.244,14.818 137.244,17.5 C137.244,20.182 135.12,22.252 132.474,22.252 Z M132.474,19.984 C133.86,19.984 134.922,18.958 134.922,17.5 C134.922,16.042 133.86,15.016 132.474,15.016 C131.106,15.016 130.044,16.042 130.044,17.5 C130.044,18.958 131.106,19.984 132.474,19.984 Z M141.204,14.548 L141.204,13 L138.882,13 L138.882,22 L141.204,22 L141.204,17.698 C141.204,15.808 142.734,15.268 143.94,15.412 L143.94,12.82 C142.806,12.82 141.672,13.324 141.204,14.548 Z M147.432,15.556 C147.432,15.07 147.9,14.818 148.476,14.818 C149.142,14.818 149.646,15.16 149.916,15.736 L151.896,14.656 C151.194,13.414 149.934,12.748 148.476,12.748 C146.622,12.748 145.056,13.774 145.056,15.61 C145.056,18.778 149.7,18.058 149.7,19.372 C149.7,19.894 149.196,20.146 148.458,20.146 C147.558,20.146 146.946,19.714 146.694,18.976 L144.678,20.11 C145.326,21.496 146.658,22.252 148.458,22.252 C150.384,22.252 152.076,21.316 152.076,19.372 C152.076,16.06 147.432,16.888 147.432,15.556 Z" id="logo-Competitors" fill="#FFFFFF"/> <path d="M155.412,22.234 C156.258,22.234 156.942,21.55 156.942,20.704 C156.942,19.858 156.258,19.174 155.412,19.174 C154.566,19.174 153.882,19.858 153.882,20.704 C153.882,21.55 154.566,22.234 155.412,22.234 Z M161.028,15.556 C161.028,15.07 161.496,14.818 162.072,14.818 C162.738,14.818 163.242,15.16 163.512,15.736 L165.492,14.656 C164.79,13.414 163.53,12.748 162.072,12.748 C160.218,12.748 158.652,13.774 158.652,15.61 C158.652,18.778 163.296,18.058 163.296,19.372 C163.296,19.894 162.792,20.146 162.054,20.146 C161.154,20.146 160.542,19.714 160.29,18.976 L158.274,20.11 C158.922,21.496 160.254,22.252 162.054,22.252 C163.98,22.252 165.672,21.316 165.672,19.372 C165.672,16.06 161.028,16.888 161.028,15.556 Z M168.408,11.92 C169.2,11.92 169.848,11.272 169.848,10.498 C169.848,9.724 169.2,9.058 168.408,9.058 C167.634,9.058 166.986,9.724 166.986,10.498 C166.986,11.272 167.634,11.92 168.408,11.92 Z M167.256,22 L169.578,22 L169.578,13 L167.256,13 L167.256,22 Z M176.85,15.232 L176.85,13 L174.816,13 L174.816,10.48 L172.494,11.182 L172.494,13 L170.928,13 L170.928,15.232 L172.494,15.232 L172.494,18.976 C172.494,21.406 173.592,22.36 176.85,22 L176.85,19.894 C175.518,19.966 174.816,19.948 174.816,18.976 L174.816,15.232 L176.85,15.232 Z M180.594,18.454 C180.918,19.642 181.908,20.146 183.132,20.146 C184.032,20.146 184.752,19.768 185.148,19.246 L187.02,20.326 C186.174,21.55 184.824,22.252 183.096,22.252 C180.072,22.252 178.164,20.182 178.164,17.5 C178.164,14.818 180.09,12.748 182.916,12.748 C185.58,12.748 187.47,14.854 187.47,17.5 C187.47,17.842 187.434,18.148 187.38,18.454 L180.594,18.454 Z M180.558,16.654 L185.148,16.654 C184.86,15.358 183.888,14.836 182.916,14.836 C181.674,14.836 180.828,15.502 180.558,16.654 Z" id="logo-.site" fill="#A1B6FF"/> <path d="M11,16.9787618 L11,19.1745142 C11,19.3619339 11.0526694,19.5455815 11.1520017,19.7045131 C11.444712,20.1728496 12.0616624,20.3152228 12.5299989,20.0225125 L17.6432027,16.8267601 C17.7719718,16.7462794 17.8807214,16.6375299 17.9612021,16.5087607 C18.2539124,16.0404242 18.1115392,15.4234738 17.6432027,15.1307635 L12.5299989,11.9350111 C12.3710673,11.8356789 12.1874197,11.7830094 12,11.7830094 C11.4477153,11.7830094 11,12.2307247 11,12.7830094 L11,14.9787618 L7.10542736e-15,14.9787618 L7.10542736e-15,16.9787618 L11,16.9787618 Z M7.65781888e-15,26.9575236 L9.00232943e-15,5 L1.25550431e-14,5 C9.76422925e-15,2.23857625 2.23857625,0 5,0 C5.93709858,0 6.85533669,0.263347224 7.6499947,0.76000848 L25.2160136,11.7387703 C27.5576962,13.2023219 28.269562,16.2870738 26.8060104,18.6287565 C26.4036069,19.2726022 25.8598592,19.8163498 25.2160136,20.2187533 L7.6499947,31.1975151 C5.30831204,32.6610668 2.22356014,31.9492009 0.76000848,29.6075183 C0.263347224,28.8128603 1.1325294e-14,27.8946222 1.12105326e-14,26.9575236 L7.65781888e-15,26.9575236 Z" id="logo-Combined-Shape" fill="#FFFFFF"/> </g> </g> </g> </symbol></svg>